<svg xmlns="http://www.w3.org/2000/svg" version="1.1" xmlns:xlink="http://www.w3.org/1999/xlink" xmlns:svgjs="http://svgjs.com/svgjs" width="1920" height="1080" preserveAspectRatio="none" viewBox="0 0 1920 1080"><g mask="url(&quot;#SvgjsMask1011&quot;)" fill="none"><rect width="1920" height="1080" x="0" y="0" fill="rgba(0, 0, 0, 1)"></rect><path d="M207.86513230884748 1063.1705619356926L180.50192593186688 867.1156861215093 42.30286315842608 971.2561495948459z" fill="rgba(8, 140, 13, 0.31)" class="triangle-float2"></path><path d="M1549.634,1258.829C1658.697,1257.464,1729.416,1158.314,1785.134,1064.547C1842.595,967.847,1906.347,852.497,1848.357,756.113C1791.253,661.202,1660.069,664.58,1549.634,673.127C1457.195,680.281,1370.321,718.046,1321.534,796.887C1269.974,880.21,1260.312,982.715,1303.695,1070.574C1352.686,1169.79,1438.991,1260.214,1549.634,1258.829" fill="rgba(8, 140, 13, 0.31)" class="triangle-float3"></path><path d="M1277.0930563625132 202.36421312516904L1103.027463645694 279.8632081279295 1180.5264586484545 453.9288008447485 1354.5920513652736 376.429805841988z" fill="rgba(8, 140, 13, 0.31)" class="triangle-float3"></path><path d="M554.5976490659191 1195.4530566664491L629.3545079529641 916.4566610857396 350.35811237225454 841.6998021986944 275.6012534852095 1120.696197779404z" fill="rgba(8, 140, 13, 0.31)" class="triangle-float2"></path><path d="M1138.5348809064822 542.5426881896991L838.2789910627318 450.7452503757929 746.4815532488258 751.0011402195432 1046.737443092576 842.7985780334493z" fill="rgba(8, 140, 13, 0.31)" class="triangle-float2"></path><path d="M213.7964864214577 407.2031009732039L54.86771816484051 471.41449138855523 119.07910858019181 630.3432596451723 278.00787683680903 566.1318692298211z" fill="rgba(8, 140, 13, 0.31)" class="triangle-float1"></path><path d="M1773.028,409.361C1837.335,411.958,1904.47,390.074,1936.86,334.46C1969.419,278.555,1953.564,210.338,1921.746,154.008C1889.286,96.542,1839.02,45.447,1773.028,44.414C1705.594,43.359,1646.8,89.214,1616.023,149.224C1587.739,204.373,1598.594,269.027,1630.62,322.09C1661.454,373.177,1713.406,406.953,1773.028,409.361" fill="rgba(8, 140, 13, 0.31)" class="triangle-float2"></path><path d="M810.265,540.127C876.564,540.74,948.289,530.023,983.639,473.931C1020.859,414.871,1012.851,337.381,975.004,278.721C940.063,224.566,874.617,201.672,810.265,205.214C752.058,208.418,705.358,246.006,674.204,295.278C640.149,349.138,611.402,415.075,642.355,470.776C673.881,527.509,745.364,539.527,810.265,540.127" fill="rgba(8, 140, 13, 0.31)" class="triangle-float1"></path><path d="M881.4791791481755 366.442963008089L997.7209214227881 399.7747462378988 989.5977251301965 208.74624121107496z" fill="rgba(8, 140, 13, 0.31)" class="triangle-float1"></path></g><defs><mask id="SvgjsMask1011"><rect width="1920" height="1080" fill="#ffffff"></rect></mask><style>
            @keyframes float1 {
                0%{transform: translate(0, 0)}
                50%{transform: translate(-10px, 0)}
                100%{transform: translate(0, 0)}
            }

            .triangle-float1 {
                animation: float1 2s infinite;
            }

            @keyframes float2 {
                0%{transform: translate(0, 0)}
                50%{transform: translate(-5px, -5px)}
                100%{transform: translate(0, 0)}
            }

            .triangle-float2 {
                animation: float2 1s infinite;
            }

            @keyframes float3 {
                0%{transform: translate(0, 0)}
                50%{transform: translate(0, -10px)}
                100%{transform: translate(0, 0)}
            }

            .triangle-float3 {
                animation: float3 2s infinite;
            }
        </style></defs></svg>