<svg xmlns="http://www.w3.org/2000/svg" version="1.1" xmlns:xlink="http://www.w3.org/1999/xlink" xmlns:svgjs="http://svgjs.com/svgjs" width="1920" height="1080" preserveAspectRatio="none" viewBox="0 0 1920 1080"><g mask="url(&quot;#SvgjsMask1304&quot;)" fill="none"><rect width="1920" height="1080" x="0" y="0" fill="rgba(0, 0, 0, 1)"></rect><path d="M1163.6786540154528 829.9428523280216L980.229779277353 681.3888826575176 831.675809606849 864.8377573956172 1015.1246843449487 1013.3917270661213z" fill="rgba(8, 140, 13, 0.31)" class="triangle-float1"></path><path d="M642.395,431.36C701.691,432.275,758.844,402.768,787.577,350.89C815.525,300.43,804.908,239.848,776.164,189.837C747.306,139.628,700.17,102.26,642.395,98.293C576.81,93.789,504.386,111.491,472.51,168.985C441.25,225.367,469.729,292.412,504.768,346.527C536.161,395.011,584.642,430.469,642.395,431.36" fill="rgba(8, 140, 13, 0.31)" class="triangle-float2"></path><path d="M544.8683272133808-168.06327188284155L285.44551147310307-73.64108886385479 639.2905102323675 91.35954385743617z" fill="rgba(8, 140, 13, 0.31)" class="triangle-float3"></path><path d="M1244.4803772613154 516.2387692075422L1429.3839743811159 640.9578202596483 1369.1994283134215 331.3351720877416z" fill="rgba(8, 140, 13, 0.31)" class="triangle-float3"></path><path d="M281.0559107450465 506.4871300381253L393.24309110649483 386.1811081526125 156.69046809750148 278.05334855319643z" fill="rgba(8, 140, 13, 0.31)" class="triangle-float1"></path><path d="M806.0687173194817 625.8894052767023L1006.5672958430838 761.1274041056718 941.3067161484512 425.3908267531002z" fill="rgba(8, 140, 13, 0.31)" class="triangle-float1"></path><path d="M1601.582,840.422C1693.055,840.394,1793.48,829.429,1841.769,751.741C1892.063,670.828,1869.63,568.319,1822.002,485.809C1774.366,403.284,1696.831,332.94,1601.582,335.641C1509.709,338.247,1447.776,418.141,1401.804,497.727C1355.808,577.354,1314.831,672.444,1361.143,751.887C1407.245,830.969,1510.043,840.45,1601.582,840.422" fill="rgba(8, 140, 13, 0.31)" class="triangle-float3"></path><path d="M1620.644,946.336C1703.565,946.897,1751.252,862.388,1792.734,790.587C1834.247,718.732,1878.317,638.065,1841.795,563.549C1801.923,482.197,1711.22,437.535,1620.644,439.465C1533.205,441.328,1453.204,493.851,1415.235,572.638C1381.291,643.073,1414.877,719.767,1452.54,788.286C1492.248,860.526,1538.212,945.778,1620.644,946.336" fill="rgba(8, 140, 13, 0.31)" class="triangle-float1"></path><path d="M1736.044,1003.039C1844.958,1000.55,1957.659,976.939,2017.612,885.977C2083.42,786.132,2097.188,652.892,2033.561,551.642C1973.014,455.293,1849.749,433.425,1736.044,437.913C1631.52,442.038,1534.25,486.338,1476.602,573.624C1411.847,671.67,1370.51,798.804,1431.272,899.374C1490.747,997.813,1621.063,1005.666,1736.044,1003.039" fill="rgba(8, 140, 13, 0.31)" class="triangle-float3"></path><path d="M745.9420780883473 1006.290948358023L583.078793639942 773.698073301559 350.485918583478 936.5613577499644 513.3492030318833 1169.1542328064284z" fill="rgba(8, 140, 13, 0.31)" class="triangle-float1"></path></g><defs><mask id="SvgjsMask1304"><rect width="1920" height="1080" fill="#ffffff"></rect></mask><style>
            @keyframes float1 {
                0%{transform: translate(0, 0)}
                50%{transform: translate(-10px, 0)}
                100%{transform: translate(0, 0)}
            }

            .triangle-float1 {
                animation: float1 5s infinite;
            }

            @keyframes float2 {
                0%{transform: translate(0, 0)}
                50%{transform: translate(-5px, -5px)}
                100%{transform: translate(0, 0)}
            }

            .triangle-float2 {
                animation: float2 4s infinite;
            }

            @keyframes float3 {
                0%{transform: translate(0, 0)}
                50%{transform: translate(0, -10px)}
                100%{transform: translate(0, 0)}
            }

            .triangle-float3 {
                animation: float3 6s infinite;
            }
        </style></defs></svg>